<svg version="1.1" id="svg4316" xmlns="http://www.w3.org/2000/svg" x="0" y="0" viewBox="0 0 764.3 377.5" style="enable-background:new 0 0 764.3 377.5" xml:space="preserve"><style>.st1{fill:#fff}</style><g style="opacity:.8"><g id="g4330"><path id="path4336" class="st1" d="M28.9 65.3V19.9h12.9v43.9c0 16.2 6.1 22.8 20 22.8 13.1 0 19-7.6 19-21.4V19.9h11.8V64c0 20.3-10 33.1-31.4 33.1-22.3.1-32.3-12.5-32.3-31.8"/><path id="path4338" class="st1" d="M121.2 19.9h12.9l33.5 46c4.2 6.1 7.8 12.5 7.8 12.5h.4s-.6-5.9-.6-11.6V19.9h11.5v76h-11.5l-35.6-48.8c-3.5-5.1-6.8-11.2-6.8-11.2h-.2s.4 5 .4 9.7v50.3h-11.6v-76"/><path id="path4340" class="st1" d="M216.8 19.9h12.7v76h-12.7v-76z"/><path id="path4342" class="st1" d="M250.8 19.9h13.4l19.2 49.7c2.2 5.6 4.5 12.9 4.5 13h.2c0-.1 2.2-7.2 4.4-13L311 19.9h12.2l-29.4 76h-12.4l-30.6-76"/><path id="path4344" class="st1" d="M344.1 19.9h46.4v10.4h-33.8v20.9h30.1v10h-30.1v24.4h34.5V96h-47.1V19.9"/><path id="path4346" class="st1" d="M440.6 53.4c10.6 0 15.2-4 15.2-11.9 0-8-5-11.6-16-11.6h-10v23.5h10.8zm-23.5-33.5h23.8c17.8 0 27.9 7.2 27.9 21 0 13-9.5 18.8-20.9 20v.3c1.6 1.1 4.5 4 9 10.4l18 24.4h-14.6L445 74.1c-7.5-10.5-9.2-11.4-13.9-11.4h-1.4v33.1H417l.1-75.9"/><path id="path4348" class="st1" d="m490 89.6 5.6-9c2.1 1.5 7.6 6.2 17.8 6.2 9 0 14.9-4 14.9-10.6 0-8-7.2-10.3-18.2-15.4-9.8-4.5-18-9.9-18-21.9 0-13.2 11.4-20.5 24.5-20.5 12.4 0 18.8 4 22 6.2l-5.5 9c-2.8-1.9-8.6-4.9-16.1-4.9-7.2 0-12.5 3.1-12.5 9.6 0 7.2 6.4 9.5 14.6 13.1 10.6 4.7 21.6 10.1 21.6 24.1 0 13.3-10.6 21.5-27 21.5-12.9.2-20.7-4.5-23.7-7.4"/><path id="path4350" class="st1" d="M565.5 19.9h12.8v76h-12.8v-76z"/><path id="path4352" class="st1" d="M622.8 30.4h-23.1V19.9H659v10.5h-23.2v65.5h-12.9l-.1-65.5"/><path id="path4354" class="st1" d="m699.5 67-26.8-47.1h13.9L706.1 56h.2l19.3-36.1H738L712.1 67v28.9h-12.8l.2-28.9"/><path id="path4356" class="st1" d="M24.5 319.1c0-21.1 14.5-39.2 40.2-39.2 10.1 0 17 2.2 22.9 6l-6 9.5c-4.5-3-9.7-4.9-17.1-4.9-17.2 0-26.4 12-26.4 28.2 0 16.8 8.6 29.2 26.6 29.2 8.6 0 14.4-2.9 18.8-6l5.4 9c-4.1 3.5-13 7.8-24.5 7.8-25.9-.2-39.9-18.5-39.9-39.6"/><path id="path4358" class="st1" d="m150.9 330.4-9-23.3c-2.5-6.6-4.8-13.8-4.8-13.8h-.2s-2.4 7.4-4.8 13.8l-8.9 23.3h27.7zm-19.7-49.2h12.4l30.9 76h-13.2l-6.5-16.5h-35.4l-6.2 16.5h-12.5l30.5-76"/><path id="path4360" class="st1" d="M193.1 281.2h13v65.6h32v10.4H193v-76"/><path id="path4362" class="st1" d="M259.9 281.2h12.8v76h-12.8v-76z"/><path id="path4364" class="st1" d="M300.9 281.2h45.6v10.4h-33v21.6h29.1v10.1h-29.1v33.9h-12.8l.2-76"/><path id="path4366" class="st1" d="M429.5 319.4c0-15.6-8.8-29.2-26.2-29.2-17.6 0-26.8 13.5-26.8 28.8 0 15.6 8.9 29.1 26.5 29.1 17.5-.1 26.5-13.2 26.5-28.7zm-66.6 0c0-20.9 14.6-39.6 40-39.6s40 18.4 40 39.1c0 20.9-14.4 39.6-39.8 39.6-25.2 0-40.2-18.3-40.2-39.1"/><path id="path4368" class="st1" d="M485.5 314.6c10.6 0 15.2-4 15.2-11.9 0-8-5-11.6-16-11.6h-10v23.5h10.8zM462 281.2h23.9c17.8 0 27.9 7.2 27.9 21 0 13-9.5 18.8-20.9 19.9v.4c1.6 1.1 4.5 4 9 10.4l18 24.4h-14.6L490 335.5c-7.5-10.5-9.4-11.4-13.9-11.4h-1.4v33.1H462v-76"/><path id="path4370" class="st1" d="M538.5 281.2h12.9l33.6 46c4.2 6 7.8 12.5 7.8 12.5h.2s-.6-5.9-.6-11.6v-46.9h11.5v76h-11.4l-35.6-48.8c-3.5-5.3-6.8-11.2-6.8-11.2h-.1s.4 5 .4 9.7v50.3h-11.9v-76"/><path id="path4372" class="st1" d="M632.1 281.2h12.8v76h-12.8v-76z"/><path id="path4374" class="st1" d="m714.5 330.4-9-23.3c-2.5-6.6-4.7-13.8-4.7-13.8h-.4s-2.4 7.4-4.8 13.8l-8.9 23.3h27.8zm-19.6-49.2h12.4l30.9 76H725l-6.5-16.5H683l-6.2 16.5h-12.5l30.6-76"/><path id="path4376" class="st1" d="M91.2 188.9c0-15.6-8.8-29.2-26.2-29.2-17.6 0-26.8 13.5-26.8 28.9 0 15.6 8.9 29.1 26.5 29.1 17.4-.2 26.5-13.3 26.5-28.8zm-66.7 0c0-20.9 14.6-39.6 40-39.6s40 18.4 40 39.1S90.1 228 64.8 228c-25.3 0-40.3-18.4-40.3-39.1"/><path id="path4378" class="st1" d="M127.1 150.8h45.6v10.4h-33v21.6h29.1v10.1h-29.1v33.9H127l.1-76"/><path id="path4380" class="st1" d="M0 246.9h206.1V130.3H0v116.6zm8-108.8h190.2v100.8H8V138.1z"/><path id="path4382" class="st1" d="M0 116.2h764.4V-.4H0v116.6zM8 7.5h748.4v100.8H8V7.5z"/><path id="path4384" class="st1" d="M0 377.5h764.4V260.9H0v116.6zm8-108.7h748.4v100.8H8V268.8z"/></g></g></svg>