<svg width="227" height="42" fill="none" xmlns="http://www.w3.org/2000/svg"><path opacity=".8" d="M192.183 27.878c2.944 0 5.34-2.507 5.34-5.61 0-3.146-2.396-5.653-5.34-5.653-2.943 0-5.339 2.508-5.339 5.653 0 3.101 2.437 5.61 5.339 5.61Zm-8.451-14.068c2.269-2.296 5.255-3.57 8.325-3.57 3.28 0 6.097 1.148 8.368 3.316 2.396 2.295 3.701 5.44 3.701 8.542 0 3.443-1.135 6.29-3.406 8.586-2.313 2.337-5.173 3.569-8.578 3.569-3.448 0-6.224-1.19-8.537-3.655-2.187-2.296-3.321-5.229-3.321-8.415 0-3.188 1.219-6.12 3.448-8.373Zm-40.227 14.068c2.944 0 5.34-2.507 5.34-5.61 0-3.146-2.398-5.653-5.34-5.653-2.942 0-5.339 2.508-5.339 5.653-.002 3.101 2.437 5.61 5.339 5.61Zm-8.453-14.068c2.271-2.296 5.257-3.57 8.325-3.57 3.28 0 6.097 1.148 8.368 3.316 2.398 2.295 3.702 5.44 3.702 8.542 0 3.443-1.136 6.29-3.407 8.586-2.313 2.337-5.173 3.569-8.578 3.569-3.448 0-6.224-1.19-8.536-3.655-2.186-2.296-3.322-5.229-3.322-8.415 0-3.188 1.221-6.12 3.448-8.373ZM62.777 33.614h6.601V2l-6.601 1.392v30.22Zm-10.079-.002H59.3V10.789h-6.602v22.823ZM55.999 0c-2.237 0-4.05 1.832-4.05 4.094 0 2.261 1.813 4.094 4.05 4.094s4.05-1.833 4.05-4.094C60.05 1.832 58.235 0 56 0Zm27.108 24.092L78.86 10.789H71.5l8.284 21.421-3.208 8.797h6.686L95.05 10.789H87.9l-4.793 13.303Zm-70.618 3.506c-3.407 0-5.844-2.423-5.844-5.61 0-3.06 2.44-5.653 5.593-5.653 3.111 0 5.507 2.465 5.507 5.737 0 3.147-2.397 5.526-5.256 5.526Zm9.878-5.486c0-2.518.606-4.88 1.77-6.988V1.94l-6.643 1.39v9.946c-1.514-1.955-3.616-2.889-6.35-2.889-2.86 0-5.425 1.062-7.528 3.145C1.262 15.827 0 18.758 0 22.031c0 3.57 1.345 6.63 3.953 8.968 1.976 1.786 4.33 2.678 7.064 2.678 2.69 0 4.71-.722 6.687-2.678v2.55h6.432v-4.32c-1.158-2.123-1.768-4.52-1.768-7.117Zm107.977-6.305c-.281-1.217-.756-2.18-1.479-3.033-1.255-1.483-3.023-2.182-5.152-2.367-1.73-.15-3.221.075-4.657.84-1.555.83-3.322 2.77-3.322 2.77s-1.755-3.654-6.145-3.654c-3.099 0-4.989 1.33-6.259 3.486v-3.06h-6.012v22.823h6.307V21.596c0-2.501.576-4.983 3.916-4.983 2.881 0 3.105 2.372 3.105 4.342v12.657h6.518V21.517c0-3.855 1.658-4.904 3.942-4.904 1.843 0 3.08.842 3.08 4.342v12.657h6.475v-4.35c-1.157-2.145-1.767-4.552-1.767-7.125 0-2.228.51-4.376 1.45-6.33Zm35.942-13.805-6.728 1.393v7.51h-2.859v6.607h2.859v16.1h6.728V17.51h2.985v-6.606h-2.985V2.002Zm9.204 6.186c2.238 0 4.051-1.833 4.051-4.094 0-2.262-1.813-4.094-4.051-4.094-2.237 0-4.05 1.832-4.05 4.094 0 2.261 1.813 4.094 4.05 4.094Zm3.301 8.157v-5.556h-6.602v22.823h6.602v-5.444a15.03 15.03 0 0 1-1.219-5.985c0-2.042.426-4.019 1.219-5.838Zm40.509-5.982c-2.987 0-5.088 1.19-6.477 3.486l.085-3.06h-6.309v22.823h6.519V21.245c0-3.06 1.387-4.633 3.994-4.633 2.566 0 3.238 1.445 3.238 4.633v12.367h6.644V18.567c0-5.228-3.027-8.204-7.694-8.204ZM37.568 27.661c2.859 0 5.256-2.38 5.256-5.524 0-3.274-2.397-5.737-5.508-5.737-3.153 0-5.592 2.591-5.592 5.652-.002 3.188 2.437 5.61 5.844 5.61Zm5.213 3.401c-1.976 1.956-3.994 2.678-6.685 2.678-2.734 0-5.088-.894-7.064-2.678-2.608-2.339-3.953-5.398-3.953-8.968 0-3.271 1.262-6.204 3.616-8.5 2.103-2.083 4.667-3.145 7.528-3.145 2.732 0 4.835.934 6.348 2.891v-2.55h6.644v22.822H42.78v-2.55" fill="#fff"/></svg>